<?xml version="1.0" encoding="UTF-8" standalone="no"?>
<!-- Created with Inkscape (http://www.inkscape.org/) -->

<svg
   width="104.8564mm"
   height="96.699745mm"
   viewBox="0 0 104.8564 96.699745"
   version="1.1"
   id="svg5"
   xml:space="preserve"
   inkscape:version="1.2.2 (732a01da63, 2022-12-09)"
   sodipodi:docname="indelinside_logo.svg"
   xmlns:inkscape="http://www.inkscape.org/namespaces/inkscape"
   xmlns:sodipodi="http://sodipodi.sourceforge.net/DTD/sodipodi-0.dtd"
   xmlns:xlink="http://www.w3.org/1999/xlink"
   xmlns="http://www.w3.org/2000/svg"
   xmlns:svg="http://www.w3.org/2000/svg"><sodipodi:namedview
     id="namedview7"
     pagecolor="#ffffff"
     bordercolor="#cccccc"
     borderopacity="1"
     inkscape:showpageshadow="0"
     inkscape:pageopacity="1"
     inkscape:pagecheckerboard="0"
     inkscape:deskcolor="#d1d1d1"
     inkscape:document-units="mm"
     showgrid="false"
     inkscape:zoom="0.93806818"
     inkscape:cx="214.27014"
     inkscape:cy="296.35373"
     inkscape:window-width="3840"
     inkscape:window-height="2054"
     inkscape:window-x="-11"
     inkscape:window-y="-11"
     inkscape:window-maximized="1"
     inkscape:current-layer="g207" /><defs
     id="defs2"><color-profile
       name="Agfa-:-Swop-Standard"
       xlink:href="../../../WINDOWS/system32/spool/drivers/color/RSWOP.icm"
       id="color-profile9005" /><clipPath
       clipPathUnits="userSpaceOnUse"
       id="clipPath5702"><use
         x="0"
         y="0"
         xlink:href="#g5698"
         id="use5704" /></clipPath></defs><g
     inkscape:label="Layer 1"
     inkscape:groupmode="layer"
     id="layer1"
     transform="translate(-46.148702,-70.089935)"><g
       transform="matrix(0.01040242,0,0,-0.01040242,32.713897,200.75759)"
       fill="#000000"
       stroke="none"
       id="g207"><g
         id="g5724"
         transform="translate(596.50814,-298.25407)"><g
           id="g5700"
           clip-path="url(#clipPath5702)"><g
             inkscape:label="Clip"
             id="g5698"><g
               id="g5680"><path
                 d="m 7334.9995,12854.935 c -902,-30 -1572,-149 -2375,-422 -1003,-341 -2011,-943 -2864,-1711 -710,-638 -1185.99998,-1496.0001 -1344.99998,-2420.0001 -49,-284 -56,-381 -56,-730 1,-292 4,-357 24,-505 119,-881.0001 480.99998,-1625 1085.99998,-2231 275,-275 569,-496 899,-677 748,-408 1740,-620 2776,-593 587,16 1020,82 1565,240 876,253 1637,639 2230,1130 156,130 490,464 591,591 402.0005,507.9999 663.0005,1032.9999 804.0005,1619 88,367 105,517 105,936 -1,381 -16,540 -80,815 -129,553 -344,981 -708.0005,1409.0001 -443,520 -1035,902 -1703,1100 -187,56 -484,117 -676,140 l -48,6 v -459 -459 l 78,-7 c 42,-4 151,-18 242,-31 410,-62 776,-178 1081,-344 371,-201 660,-462.0001 914,-825.0001 287.0005,-411 431.0005,-769 491.0005,-1225 20,-153 14,-473 -11,-620 -75,-442 -243,-856.0001 -509.0005,-1255.0001 -77,-117 -220,-305.9999 -308,-408.9999 -95,-111 -351,-369 -474,-478 -302,-266 -690,-523 -1064,-705 -647,-314 -1366,-503 -2180,-575 -185,-16 -721,-16 -910,1 -768,66 -1470,263 -2041,570 -443,239 -797,531 -1089,897 -392,490.9999 -625,989.9999 -712,1524 -26,165 -32,537 -10,685 73,483 266,960 589,1449 194,294 338,471 612,749.0001 339,344 550,512 941,747 424,255 1395,690 1959,876 508,168 973,265 1521,316 170,16 709,16 890,0 608,-54 1034,-152 1377,-317 73,-35 169,-89 214,-120 45,-30 83,-54 84,-53 5,7 158,1109 154,1112 -2,2 -78,25 -169,50 -409,115 -881,183 -1420,206 -223,9 -287,10 -475,3 z"
                 id="path177"
                 style="fill:#0c6cc0;fill-opacity:1;stroke-width:0.961315;stroke-dasharray:none" /><path
                 d="m 6778.9995,11408.935 c -37,-12 -83,-36 -104,-52 l -38,-28 7,-535 c 6,-521 15,-917.0001 36,-1657.0001 12,-422 10,-413 105,-460 51,-25 72,-30 136,-30 46,0 86,6 102,14 52,28 57,55 57,343 0,268 21,1144.0001 40,1658.0001 6,157 11,362 13,455 2,164 1,171 -23,215 -51,91 -194,125 -331,77 z"
                 id="path179"
                 style="fill:#0c6cc0;fill-opacity:1" /><path
                 d="m 5029.9995,10822.935 c -59,-11 -119,-37 -147,-63 -21,-19 -23,-31 -23,-112 0,-50 4,-174 10,-276 5,-102 12,-272 16,-377.0001 l 7,-193 h -65 c -133,0 -241,-50 -353,-164 -152,-154 -249,-370 -290,-643 -75,-491 -2,-868 186,-964 172,-87 362,-10 500,202 28,43 56,79 60,79 5,0 9,-67 9,-148 0,-141 1,-150 23,-170 42,-40 117,-66 189,-67 60,0 70,3 94,26 33,33 29,-41 54,1029 19,788 32,1215.0001 46,1582.0001 l 7,167 -30,28 c -58,54 -189,83 -293,64 z m -177,-1399.0001 c 48,-53 65,-310 33,-504 -51,-307 -171,-529 -272,-504 -78,20 -96,288 -39,565 64,308 201,528 278,443 z"
                 id="path181"
                 style="fill:#0c6cc0;fill-opacity:1" /><path
                 d="m 6011.9995,10226.935 c -70,-20 -106,-39 -175,-94 -230,-184.0001 -391,-599.0001 -390,-1006.0001 1,-117 5,-156 26,-236 94,-361 368,-541 676,-444 133,42 257,151 347,304 56,96 68,138 54,191 -28,104 -166,173 -249,124 -15,-9 -40,-37 -56,-62 -38,-60 -141,-169 -176,-188 -69,-35 -157,-3 -192,69 -29,58 -41,152 -31,230 l 9,68 95,2 c 86,2 102,5 170,38 89,43 155,99 214,183 83,116 135,248 156,395 28,188 -44,340.0001 -192,406.0001 -76,34 -203,43 -286,20 z m 185,-341.0001 c 11,-18 16,-45 16,-88 -3,-173 -142,-363 -290,-397 -32,-7 -33,-6 -33,26 0,94 84,332 147,413 54,72 129,93 160,46 z"
                 id="path183"
                 style="fill:#0c6cc0;fill-opacity:1" /><path
                 d="m 2357.9995,9598.9349 c -13,-14 -54,-70 -91,-125 -94,-140 -94,-141 40,-247 110,-87 157,-111 198,-101 29,8 202,219 211,259 3,17 0,36 -9,50 -17,25 -267,178 -302,185 -17,3 -31,-4 -47,-21 z"
                 id="path185"
                 style="fill:#0c6cc0;fill-opacity:1" /><path
                 d="m 2832.9995,9455.9349 c -6,-17 54,-1619 64,-1692 7,-53 42,-97 90,-113 48,-16 161,-7 209,17 68,34 70,40 55,310 -7,132 -12,273 -12,314 0,130 64,335 167,542 59,117 97,143 143,94 30,-32 36,-61 66,-306 64,-537 107,-868 116,-897 12,-38 80,-87 151,-108 78,-23 140,6 168,79 47,125 35,890 -20,1256 -41,273 -122,419 -249,450 -68,16 -166,8 -216,-18 -76,-39 -144,-135 -172,-244 -15,-57 -23,-73 -45,-84 -15,-8 -29,-14 -33,-14 -3,0 -5,97 -5,215 v 215 h -235 c -207,0 -236,-2 -242,-16 z"
                 id="path187"
                 style="fill:#0c6cc0;fill-opacity:1" /><path
                 d="m 2215.9995,9014.9349 c -19,-5 -19,-16 -13,-317 9,-422 26,-969 36,-1147 9,-166 19,-191 88,-225 49,-23 191,-24 246,-1 67,29 65,-1 73,838 l 7,755 -29,21 c -32,22 -117,56 -179,72 -40,11 -193,13 -229,4 z"
                 id="path189"
                 style="fill:#0c6cc0;fill-opacity:1" /><path
                 d="m 8173.9995,8946.9349 c -115,-25 -153,-54 -156,-120 -1,-20 17,-547 27,-777 l 6,-128 h -64 c -35,0 -88,-7 -118,-16 -180,-54 -298,-167 -405,-389 -112,-233 -162,-502 -151,-814.0001 12,-355 97,-535 276,-588 147,-43 329,51 441,225 25,39 48,71 51,71 3,1 9,-61 12,-136 3,-76 9,-146 13,-157 8,-22 115,-73 171,-82 54,-8 119,11 140,42 18,27 23,201 69,2056.0001 l 18,728 -24,25 c -52,55 -199,84 -306,60 z m -152,-1435 c 63,-129 42,-502 -42,-732.0001 -69,-187 -172,-296 -231,-242 -71,64 -62,415.0001 18,694.0001 32,114 104,261 144,294 46,39 88,33 111,-14 z"
                 id="path191"
                 style="fill:#0c6cc0;fill-opacity:1" /><path
                 d="m 9154.9995,8343.9349 c -240,-83 -429,-370 -517,-787 -19,-93 -23,-139 -23,-300 0,-211 14,-284 78,-414 42,-86.0001 158,-208.0001 236,-250.0001 145,-77 328,-74 489,8 92,47 232,204.0001 287,322.0001 55,120 10,226 -114,268 -81,27 -120,5 -196,-109 -47,-71 -130,-146 -172,-156 -71,-18 -146,14 -178,77 -24,44 -36,149 -28,228 l 8,73 95,2 c 72,1 108,7 150,24 65,26 168,106 227,175 86,102 154,268 174,425 25,204 -51,348 -219,412 -69,26 -224,27 -297,2 z m 209,-328 c 39,-38 33,-135 -14,-248 -52,-124 -152,-217 -269,-251 -24,-7 -24,-7 -18,51 13,119 70,282 131,372 54,80 132,115 170,76 z"
                 id="path193"
                 style="fill:#0c6cc0;fill-opacity:1" /><path
                 d="m 6874.9995,8197.9349 c -50,-53 -165,-228 -165,-251 0,-25 60,-84 160,-157 131,-96 139,-94 265,59 84,101 95,120 95,154 0,37 -3,40 -87,97 -102,68 -170,108 -208,122 -24,9 -31,7 -60,-24 z"
                 id="path195"
                 style="fill:#0c6cc0;fill-opacity:1" /><path
                 d="m 6278.9995,7677.9349 c -122,-51 -277,-175 -382,-306 -125,-157 -180,-296 -180,-455 -1,-172.0001 51,-258.0001 271,-457.0001 146,-131 173,-173 174,-261 1,-102 -60,-194.9999 -197,-301.9999 -98,-77 -150,-131 -164,-168 -36,-94 17,-239 111,-307 54,-40 117,-41 191,-4 93,47 208,144 287,242 128,157 199,317 208,468.9999 11,197 -41,294 -268,499 -151,137 -180,178.0001 -180,259.0001 0,106 101,234 278,355 103,70 117,86 126,145 14,84 -43,249 -101,295 -35,27 -102,26 -174,-4 z"
                 id="path197"
                 style="fill:#0c6cc0;fill-opacity:1" /><path
                 d="m 6754.9995,7613.9349 -40,-7 3,-240 c 3,-301 30,-1295.0001 37,-1354 11,-96 67,-130 213,-131 103,0 153,15 174,52 17,30 32,1565 15,1586 -15,19 -93,57 -154,75 -61,18 -191,28 -248,19 z"
                 id="path199"
                 style="fill:#0c6cc0;fill-opacity:1" /><path
                 d="m 3847.9995,7364.9349 c -46,-48 -168,-236 -168,-258 0,-25 24,-48 149,-144 96,-74 125,-87 164,-77 24,6 200,218 212,256 15,46 -2,68 -106,135 -109,71 -190,115 -212,115 -7,0 -25,-12 -39,-27 z"
                 id="path201"
                 style="fill:#0c6cc0;fill-opacity:1" /><path
                 d="m 4505.9995,7184.9349 -149,-4 7,-182 c 3,-100 15,-447.0001 27,-772.0001 11,-323.9999 23,-646.9999 28,-717.9999 7,-122 9,-128 36,-157 16,-17 47,-35 70,-41 92,-25 257,22 271,77 4,15 3,120 -2,233 -5,113 -9,269 -8,346 0,136.9999 1,142.9999 42,264.9999 64,192 156,372 207,406 21,14 30,14 55,4 37,-15 55,-67 70,-205 6,-55 38,-315 70,-577.9999 65,-539 55,-501 155,-552 105,-53 188,-39 228,39 29,55 36,150 36,466 1,598.9999 -37,945.9999 -125,1130 -60,127 -118,170 -240,178 -109,7 -170,-15 -232,-83 -60,-65 -98,-137 -113,-216 -10,-51.0001 -15,-59.0001 -42,-68.0001 -16,-6 -34,-11 -38,-11 -5,0 -9,101.0001 -9,225.0001 v 225 l -97,-2 c -54,-1 -165,-4 -247,-5 z"
                 id="path203"
                 style="fill:#0c6cc0;fill-opacity:1" /><path
                 d="m 3690.9995,6762.9348 c -15,-10 -14,-122 14,-1119.9999 16,-551 16,-550 78,-595 38,-28 223,-36 280,-13 67,29 64,-9 75,847 6,429.9999 6,781.9999 2,790.9999 -11,20 -107,63 -185,84 -64,16 -241,20 -264,6 z"
                 id="path205"
                 style="fill:#0c6cc0;fill-opacity:1" /></g></g></g></g></g></g></svg>
